@startuml

skinparam BackgroundColor #F8F8F8
skinparam  Shadowing false
skinparam RoundCorner 3
skinparam noteBorderColor Khaki
skinparam noteBackgroundColor #FCF3CF
skinparam noteFontName Courier
skinparam noteFontSite 4

skinparam class {
BackgroundColor white
ArrowColor CornFlowerBlue
BorderColor #C8C8C8
BorderThickness 1.5
HeaderBackgroundColor LightGrey
}

interface Iterator {
  + next()
  + first()
  + isDone()
  + last()
}

interface Collection {
  + createIteration():Iterator
}

class ConcreteIterator {
  - index : Integer
}

class ConcreteCollection {
}

note top of Iterator
   can have more methods
   depending on the
   implementation
end note

note left of Iterator::next
  this method is the
  min requirement
  for each iterator
end note

Iterator <|-- ConcreteIterator
Collection <|-- ConcreteCollection
Iterator o-r-> Collection

@enduml